<svg version="1.1" viewBox="0.0 0.0 960.0 540.0" fill="none" stroke="none" stroke-linecap="square" stroke-miterlimit="10" xmlns:xlink="http://www.w3.org/1999/xlink" xmlns="http://www.w3.org/2000/svg"><clipPath id="g3b0db5d24a_0_335.0"><path d="m0 0l960.0 0l0 540.0l-960.0 0l0 -540.0z" clip-rule="nonzero"/></clipPath><g clip-path="url(#g3b0db5d24a_0_335.0)"><path fill="#ffffff" d="m0 0l960.0 0l0 540.0l-960.0 0z" fill-rule="evenodd"/><path fill="#000000" fill-opacity="0.0" d="m67.20137 66.25858l752.69293 0l0 79.99999l-752.69293 0z" fill-rule="evenodd"/><path fill="#3d3935" d="m102.248245 102.89295q0 5.5625 -2.96875 8.375q-2.953125 2.796875 -8.84375 2.796875q-5.828125 0 -8.8125 -2.796875q-2.984375 -2.8125 -2.984375 -8.375l0 -15.640625l6.921875 0l0 15.765625q0 2.84375 1.203125 4.25q1.203125 1.390625 3.671875 1.390625q4.96875 0 4.96875 -5.640625l0 -15.765625l6.84375 0l0 15.640625zm17.754349 -9.640625q3.921875 0 6.078125 2.734375q2.15625 2.71875 2.15625 7.59375q0 4.953125 -2.203125 7.71875q-2.1875 2.765625 -6.03125 2.765625q-2.125 0 -3.671875 -1.0q-1.53125 -1.0 -2.375 -2.765625l0 11.765625l-6.796875 0l0 -28.40625l5.96875 0l0.1875 4.234375q0.84375 -2.109375 2.578125 -3.375q1.75 -1.265625 4.109375 -1.265625zm-2.359375 15.8125q1.796875 0 2.78125 -1.3125q0.984375 -1.328125 0.984375 -4.09375q0 -2.765625 -0.984375 -4.078125q-0.984375 -1.328125 -2.78125 -1.328125q-1.71875 0 -2.703125 1.328125q-0.984375 1.3125 -0.984375 3.875l0 0.40625q0 2.484375 0.953125 3.84375q0.96875 1.359375 2.734375 1.359375zm34.916855 -23.890625l0 28.484375l-6.125 0l-0.234375 -3.796875q-0.875 1.953125 -2.578125 3.078125q-1.703125 1.125 -3.9375 1.125q-3.890625 0 -6.078125 -2.71875q-2.171875 -2.734375 -2.171875 -7.609375q0 -4.953125 2.203125 -7.71875q2.203125 -2.765625 6.078125 -2.765625q2.125 0 3.640625 1.0q1.53125 1.0 2.40625 2.765625l0 -11.84375l6.796875 0zm-10.515625 23.890625q1.640625 0 2.609375 -1.171875q0.984375 -1.1875 1.109375 -3.4375l0 -1.59375q-0.125 -2.203125 -1.109375 -3.40625q-0.96875 -1.203125 -2.609375 -1.203125q-1.796875 0 -2.78125 1.328125q-0.984375 1.3125 -0.984375 4.078125q0 2.765625 0.984375 4.09375q0.984375 1.3125 2.78125 1.3125zm34.68248 0.71875q0.75 0 1.234375 -0.171875l-0.515625 3.8125q-1.171875 0.640625 -2.71875 0.640625q-4.328125 0 -5.171875 -3.09375q-1.796875 3.09375 -7.109375 3.09375q-3.0 0 -4.609375 -1.28125q-1.59375 -1.28125 -1.59375 -3.71875q0 -2.5625 1.8125 -4.140625q1.828125 -1.578125 5.984375 -2.421875l4.515625 -0.890625l0 -0.71875q0 -1.359375 -0.765625 -2.15625q-0.75 -0.796875 -2.0625 -0.796875q-1.53125 0 -2.5 0.71875q-0.953125 0.71875 -1.21875 2.359375l-5.53125 -1.59375q0.53125 -2.921875 2.890625 -4.546875q2.359375 -1.625 6.359375 -1.625q4.671875 0 7.109375 1.921875q2.4375 1.921875 2.4375 5.765625l0 7.28125q0 1.5625 1.453125 1.5625zm-11.8125 -0.125q1.40625 0 2.515625 -0.78125q1.125 -0.78125 1.125 -2.0625l0 -1.71875l-3.234375 0.765625q-1.28125 0.3125 -1.828125 0.78125q-0.53125 0.453125 -0.53125 1.296875q0 0.84375 0.515625 1.28125q0.53125 0.4375 1.4375 0.4375zm30.239975 2.875q-1.0 0.6875 -2.546875 1.109375q-1.53125 0.421875 -3.09375 0.421875q-3.546875 0 -5.4375 -1.515625q-1.875 -1.53125 -1.921875 -4.890625l0 -9.15625l-3.4375 0l0 -4.84375l3.4375 0l0 -4.484375l6.8125 -1.875l0 6.359375l6.0 0l0 4.84375l-6.0 0l0 8.03125q0 2.6875 2.640625 2.6875q1.640625 0 2.875 -0.875l0.671875 4.1875zm22.368729 -9.15625q0 1.359375 -0.203125 2.234375l-13.640625 0q0.328125 1.890625 1.375 2.765625q1.0625 0.875 2.828125 0.875q1.484375 0 2.421875 -0.546875q0.9375 -0.5625 1.25 -1.640625l5.53125 1.75q-0.84375 2.5625 -3.265625 3.90625q-2.421875 1.34375 -5.9375 1.34375q-5.234375 0 -8.015625 -2.71875q-2.78125 -2.734375 -2.78125 -7.6875q0 -4.953125 2.71875 -7.671875q2.71875 -2.734375 7.71875 -2.734375q4.84375 0 7.421875 2.671875q2.578125 2.65625 2.578125 7.453125zm-10.046875 -5.359375q-3.234375 0 -3.828125 3.921875l7.515625 0q-0.484375 -3.921875 -3.6875 -3.921875zm32.641846 -5.4375l0 5.59375l10.890625 0l0 5.328125l-10.890625 0l0 10.15625l-6.875 0l0 -26.40625l20.515625 0l0 5.328125l-13.640625 0zm23.839355 14.15625q0 1.359375 0.390625 1.921875q0.40625 0.5625 1.453125 0.5625q0.953125 0 2.046875 -0.359375l-0.453125 4.203125q-0.71875 0.4375 -1.875 0.71875q-1.15625 0.28125 -2.28125 0.28125q-3.203125 0 -4.640625 -1.5q-1.4375 -1.5 -1.4375 -4.828125l0 -22.5625l6.796875 0l0 21.5625zm15.970612 -13.484375q5.0 0 7.765625 2.75q2.78125 2.734375 2.78125 7.65625q0 4.921875 -2.78125 7.671875q-2.765625 2.734375 -7.765625 2.734375q-5.0 0 -7.78125 -2.734375q-2.78125 -2.75 -2.78125 -7.671875q0 -4.921875 2.78125 -7.65625q2.78125 -2.75 7.78125 -2.75zm0 4.84375q-1.921875 0 -2.84375 1.328125q-0.921875 1.3125 -0.921875 4.234375q0 2.921875 0.921875 4.25q0.921875 1.3125 2.84375 1.3125q1.90625 0 2.828125 -1.3125q0.921875 -1.328125 0.921875 -4.25q0 -2.921875 -0.921875 -4.234375q-0.921875 -1.328125 -2.828125 -1.328125zm47.954956 -4.4375l-6.046875 20.0l-8.15625 0l-3.59375 -12.84375l-3.5625 12.84375l-8.125 0l-6.078125 -20.0l7.15625 0l3.359375 15.078125l3.921875 -15.078125l6.71875 0l3.890625 15.078125l3.390625 -15.078125l7.125 0z" fill-rule="nonzero"/><path fill="#2f7ee2" d="m675.5009 254.89406l0 0c67.29169 -0.0031738281 124.6604 44.072342 135.46765 104.077774c10.807251 60.005432 -28.13507 118.23917 -91.95654 137.51028c-63.82141 19.271118 -133.69464 -6.1054077 -164.99512 -59.92282c-31.300537 -53.817444 -14.794678 -120.199615 38.976074 -156.75168l11.057678 13.277161c-47.357117 31.213379 -62.234497 88.39551 -35.109436 134.945c27.125122 46.5495 88.226746 68.69302 144.19464 52.256805c55.967957 -16.436218 90.242065 -66.5889 80.88403 -118.35608c-9.358032 -51.76718 -59.579346 -89.831665 -118.518005 -89.82895z" fill-rule="evenodd"/><path fill="#2f7ee2" d="m607.8897 277.42197l0 35.191742l-38.952698 -35.191742z" fill-rule="evenodd"/><path fill="#000000" fill-opacity="0.0" d="m599.49 330.3622l167.18109 0l0 68.346436l-167.18109 0z" fill-rule="evenodd"/><path fill="#000000" d="m620.04504 357.2822q-0.1875 0 -0.296875 -0.125q-0.109375 -0.125 -0.109375 -0.296875l0 -12.203125q0 -0.1875 0.109375 -0.3125q0.109375 -0.125 0.296875 -0.125l0.9375 0q0.203125 0 0.3125 0.125q0.125 0.109375 0.125 0.3125l0 12.203125q0 0.171875 -0.125 0.296875q-0.125 0.125 -0.3125 0.125l-0.9375 0zm4.837097 0q-0.1875 0 -0.3125 -0.125q-0.109375 -0.125 -0.109375 -0.296875l0 -8.84375q0 -0.1875 0.109375 -0.3125q0.125 -0.125 0.3125 -0.125l0.78125 0q0.1875 0 0.296875 0.125q0.109375 0.125 0.109375 0.3125l0 0.625q1.015625 -1.25 2.734375 -1.25q2.046875 0 2.90625 1.71875q0.453125 -0.78125 1.28125 -1.25q0.828125 -0.46875 1.859375 -0.46875q1.53125 0 2.5 1.046875q0.96875 1.046875 0.96875 3.015625l0 5.40625q0 0.171875 -0.125 0.296875q-0.125 0.125 -0.3125 0.125l-0.796875 0q-0.1875 0 -0.3125 -0.125q-0.125 -0.125 -0.125 -0.296875l0 -5.234375q0 -1.484375 -0.609375 -2.125q-0.609375 -0.65625 -1.625 -0.65625q-0.890625 0 -1.546875 0.671875q-0.640625 0.65625 -0.640625 2.109375l0 5.234375q0 0.171875 -0.125 0.296875q-0.109375 0.125 -0.296875 0.125l-0.828125 0q-0.171875 0 -0.296875 -0.125q-0.125 -0.125 -0.125 -0.296875l0 -5.234375q0 -1.46875 -0.640625 -2.125q-0.640625 -0.65625 -1.59375 -0.65625q-0.90625 0 -1.546875 0.65625q-0.640625 0.65625 -0.640625 2.109375l0 5.25q0 0.171875 -0.125 0.296875q-0.125 0.125 -0.296875 0.125l-0.828125 0zm18.816772 0.1875q-0.90625 0 -1.6875 -0.375q-0.765625 -0.375 -1.234375 -1.015625q-0.453125 -0.640625 -0.453125 -1.421875q0 -1.234375 1.0 -2.015625q1.015625 -0.78125 2.75 -1.046875l2.796875 -0.390625l0 -0.546875q0 -1.921875 -2.21875 -1.921875q-0.859375 0 -1.375 0.34375q-0.515625 0.34375 -0.765625 0.8125q-0.078125 0.1875 -0.15625 0.25q-0.078125 0.0625 -0.234375 0.0625l-0.734375 0q-0.15625 0 -0.28125 -0.109375q-0.125 -0.125 -0.125 -0.296875q0 -0.421875 0.40625 -0.984375q0.40625 -0.578125 1.234375 -1.0q0.84375 -0.421875 2.0625 -0.421875q2.078125 0 2.984375 0.96875q0.90625 0.96875 0.90625 2.421875l0 6.078125q0 0.171875 -0.125 0.296875q-0.109375 0.125 -0.296875 0.125l-0.828125 0q-0.1875 0 -0.296875 -0.125q-0.109375 -0.125 -0.109375 -0.296875l0 -0.828125q-0.40625 0.609375 -1.203125 1.03125q-0.78125 0.40625 -2.015625 0.40625zm0.375 -1.359375q1.234375 0 2.015625 -0.796875q0.78125 -0.8125 0.78125 -2.34375l0 -0.515625l-2.171875 0.3125q-1.34375 0.1875 -2.046875 0.640625q-0.6875 0.4375 -0.6875 1.109375q0 0.765625 0.625 1.1875q0.625 0.40625 1.484375 0.40625zm11.135925 5.28125q-1.546875 0 -2.484375 -0.53125q-0.921875 -0.515625 -1.3125 -1.1875q-0.375 -0.671875 -0.375 -1.15625q0 -0.171875 0.125 -0.296875q0.140625 -0.109375 0.296875 -0.109375l0.828125 0q0.171875 0 0.28125 0.078125q0.109375 0.078125 0.1875 0.3125q0.515625 1.484375 2.375 1.484375q1.390625 0 2.0625 -0.59375q0.671875 -0.59375 0.671875 -2.109375l0 -1.28125q-1.078125 1.375 -3.015625 1.375q-1.984375 0 -2.96875 -1.265625q-0.96875 -1.265625 -1.03125 -3.21875l-0.015625 -0.515625l0.015625 -0.5q0.0625 -1.921875 1.03125 -3.203125q0.984375 -1.28125 2.96875 -1.28125q1.953125 0 3.046875 1.4375l0 -0.796875q0 -0.1875 0.125 -0.3125q0.125 -0.140625 0.3125 -0.140625l0.796875 0q0.1875 0 0.3125 0.140625q0.125 0.125 0.125 0.3125l0 9.046875q0 4.3125 -4.359375 4.3125zm-0.03125 -5.46875q1.3125 0 1.96875 -0.84375q0.65625 -0.859375 0.71875 -2.046875q0.015625 -0.171875 0.015625 -0.65625q0 -0.46875 -0.015625 -0.640625q-0.0625 -1.1875 -0.71875 -2.03125q-0.65625 -0.859375 -1.96875 -0.859375q-1.34375 0 -1.953125 0.859375q-0.59375 0.84375 -0.65625 2.1875l-0.015625 0.484375l0.015625 0.5q0.0625 1.34375 0.65625 2.203125q0.609375 0.84375 1.953125 0.84375zm11.053589 1.546875q-1.90625 0 -3.046875 -1.1875q-1.140625 -1.1875 -1.25 -3.234375l-0.015625 -0.640625l0.015625 -0.609375q0.109375 -2.015625 1.25 -3.203125q1.140625 -1.203125 3.046875 -1.203125q2.046875 0 3.171875 1.3125q1.125 1.296875 1.125 3.546875l0 0.328125q0 0.1875 -0.125 0.3125q-0.109375 0.125 -0.296875 0.125l-6.46875 0l0 0.15625q0.046875 1.21875 0.734375 2.078125q0.6875 0.859375 1.828125 0.859375q0.875 0 1.421875 -0.34375q0.5625 -0.34375 0.84375 -0.71875q0.171875 -0.234375 0.25 -0.28125q0.09375 -0.046875 0.328125 -0.046875l0.8125 0q0.171875 0 0.296875 0.09375q0.125 0.09375 0.125 0.25q0 0.40625 -0.515625 0.984375q-0.5 0.578125 -1.421875 1.0q-0.921875 0.421875 -2.109375 0.421875zm2.609375 -5.734375l0 -0.046875q0 -1.3125 -0.71875 -2.125q-0.703125 -0.828125 -1.890625 -0.828125q-1.21875 0 -1.90625 0.828125q-0.6875 0.8125 -0.6875 2.125l0 0.046875l5.203125 0zm7.9089355 5.546875q-0.15625 0 -0.265625 -0.109375q-0.109375 -0.109375 -0.109375 -0.265625l0.03125 -0.203125l4.625 -12.078125q0.15625 -0.40625 0.609375 -0.40625l1.1875 0q0.453125 0 0.59375 0.40625l4.625 12.078125l0.046875 0.203125q0 0.15625 -0.125 0.265625q-0.125 0.109375 -0.265625 0.109375l-0.875 0q-0.1875 0 -0.3125 -0.09375q-0.125 -0.109375 -0.15625 -0.21875l-1.046875 -2.6875l-6.171875 0l-1.03125 2.6875q-0.15625 0.3125 -0.46875 0.3125l-0.890625 0zm2.921875 -4.546875l5.109375 0l-2.546875 -6.703125l-2.5625 6.703125zm10.618591 4.546875q-0.1875 0 -0.3125 -0.125q-0.109375 -0.125 -0.109375 -0.296875l0 -8.84375q0 -0.1875 0.109375 -0.3125q0.125 -0.125 0.3125 -0.125l0.796875 0q0.203125 0 0.3125 0.109375q0.125 0.109375 0.125 0.328125l0 0.8125q0.5625 -0.6875 1.296875 -1.0625q0.734375 -0.375 1.828125 -0.375q1.796875 0 2.78125 1.15625q1.0 1.140625 1.0 3.03125l0 5.28125q0 0.171875 -0.125 0.296875q-0.125 0.125 -0.3125 0.125l-0.859375 0q-0.1875 0 -0.3125 -0.125q-0.109375 -0.125 -0.109375 -0.296875l0 -5.171875q0 -1.34375 -0.65625 -2.09375q-0.65625 -0.75 -1.859375 -0.75q-1.203125 0 -1.921875 0.765625q-0.703125 0.75 -0.703125 2.078125l0 5.171875q0 0.171875 -0.125 0.296875q-0.109375 0.125 -0.296875 0.125l-0.859375 0zm13.518372 0.1875q-0.90625 0 -1.6875 -0.375q-0.765625 -0.375 -1.234375 -1.015625q-0.453125 -0.640625 -0.453125 -1.421875q0 -1.234375 1.0 -2.015625q1.015625 -0.78125 2.75 -1.046875l2.796875 -0.390625l0 -0.546875q0 -1.921875 -2.21875 -1.921875q-0.859375 0 -1.375 0.34375q-0.515625 0.34375 -0.765625 0.8125q-0.078125 0.1875 -0.15625 0.25q-0.078125 0.0625 -0.234375 0.0625l-0.734375 0q-0.15625 0 -0.28125 -0.109375q-0.125 -0.125 -0.125 -0.296875q0 -0.421875 0.40625 -0.984375q0.40625 -0.578125 1.234375 -1.0q0.84375 -0.421875 2.0625 -0.421875q2.078125 0 2.984375 0.96875q0.90625 0.96875 0.90625 2.421875l0 6.078125q0 0.171875 -0.125 0.296875q-0.109375 0.125 -0.296875 0.125l-0.828125 0q-0.1875 0 -0.296875 -0.125q-0.109375 -0.125 -0.109375 -0.296875l0 -0.828125q-0.40625 0.609375 -1.203125 1.03125q-0.78125 0.40625 -2.015625 0.40625zm0.375 -1.359375q1.234375 0 2.015625 -0.796875q0.78125 -0.8125 0.78125 -2.34375l0 -0.515625l-2.171875 0.3125q-1.34375 0.1875 -2.046875 0.640625q-0.6875 0.4375 -0.6875 1.109375q0 0.765625 0.625 1.1875q0.625 0.40625 1.484375 0.40625zm7.6516113 1.171875q-0.1875 0 -0.3125 -0.125q-0.109375 -0.125 -0.109375 -0.296875l0 -12.390625q0 -0.203125 0.109375 -0.3125q0.125 -0.125 0.3125 -0.125l0.828125 0q0.1875 0 0.296875 0.125q0.125 0.125 0.125 0.3125l0 12.390625q0 0.171875 -0.125 0.296875q-0.109375 0.125 -0.296875 0.125l-0.828125 0zm5.746155 3.546875q-0.171875 0 -0.28125 -0.109375q-0.109375 -0.109375 -0.109375 -0.265625q0 -0.0625 0.09375 -0.34375l1.453125 -3.40625l-3.5625 -8.421875q-0.109375 -0.21875 -0.109375 -0.3125q0.015625 -0.171875 0.125 -0.28125q0.125 -0.109375 0.265625 -0.109375l0.859375 0q0.296875 0 0.453125 0.296875l2.875 6.875l2.9375 -6.875q0.15625 -0.296875 0.453125 -0.296875l0.84375 0q0.140625 0 0.25 0.109375q0.109375 0.109375 0.109375 0.265625q0 0.125 -0.09375 0.328125l-5.265625 12.25q-0.09375 0.140625 -0.203125 0.21875q-0.109375 0.078125 -0.265625 0.078125l-0.828125 0zm11.867249 -3.359375q-1.28125 0 -2.171875 -0.421875q-0.890625 -0.421875 -1.328125 -0.953125q-0.421875 -0.546875 -0.421875 -0.90625q0 -0.1875 0.125 -0.28125q0.140625 -0.109375 0.296875 -0.109375l0.78125 0q0.109375 0 0.171875 0.046875q0.0625 0.03125 0.171875 0.15625q0.4375 0.53125 0.96875 0.828125q0.53125 0.296875 1.421875 0.296875q1.015625 0 1.609375 -0.375q0.609375 -0.375 0.609375 -1.078125q0 -0.46875 -0.265625 -0.75q-0.25 -0.28125 -0.859375 -0.5q-0.609375 -0.21875 -1.796875 -0.484375q-1.625 -0.359375 -2.296875 -1.03125q-0.671875 -0.671875 -0.671875 -1.734375q0 -0.6875 0.40625 -1.328125q0.421875 -0.640625 1.21875 -1.046875q0.8125 -0.40625 1.9375 -0.40625q1.171875 0 2.0 0.390625q0.84375 0.390625 1.25 0.921875q0.421875 0.515625 0.421875 0.875q0 0.171875 -0.125 0.28125q-0.109375 0.109375 -0.28125 0.109375l-0.703125 0q-0.265625 0 -0.375 -0.203125q-0.3125 -0.359375 -0.53125 -0.546875q-0.21875 -0.203125 -0.625 -0.34375q-0.40625 -0.140625 -1.03125 -0.140625q-0.90625 0 -1.390625 0.390625q-0.484375 0.375 -0.484375 1.015625q0 0.390625 0.203125 0.65625q0.203125 0.265625 0.78125 0.5q0.578125 0.234375 1.71875 0.484375q1.765625 0.375 2.5 1.0625q0.734375 0.6875 0.734375 1.765625q0 0.8125 -0.453125 1.46875q-0.453125 0.640625 -1.359375 1.015625q-0.90625 0.375 -2.15625 0.375zm6.430481 -11.71875q-0.171875 0 -0.296875 -0.109375q-0.125 -0.125 -0.125 -0.3125l0 -0.96875q0 -0.1875 0.125 -0.3125q0.125 -0.140625 0.296875 -0.140625l1.109375 0q0.1875 0 0.3125 0.140625q0.140625 0.125 0.140625 0.3125l0 0.96875q0 0.1875 -0.140625 0.3125q-0.125 0.109375 -0.3125 0.109375l-1.109375 0zm0.15625 11.53125q-0.1875 0 -0.3125 -0.125q-0.109375 -0.125 -0.109375 -0.296875l0 -8.84375q0 -0.1875 0.109375 -0.3125q0.125 -0.125 0.3125 -0.125l0.828125 0q0.171875 0 0.296875 0.125q0.125 0.125 0.125 0.3125l0 8.84375q0 0.171875 -0.125 0.296875q-0.125 0.125 -0.296875 0.125l-0.828125 0zm7.368164 0.1875q-1.28125 0 -2.171875 -0.421875q-0.890625 -0.421875 -1.328125 -0.953125q-0.421875 -0.546875 -0.421875 -0.90625q0 -0.1875 0.125 -0.28125q0.140625 -0.109375 0.296875 -0.109375l0.78125 0q0.109375 0 0.171875 0.046875q0.0625 0.03125 0.171875 0.15625q0.4375 0.53125 0.96875 0.828125q0.53125 0.296875 1.421875 0.296875q1.015625 0 1.609375 -0.375q0.609375 -0.375 0.609375 -1.078125q0 -0.46875 -0.265625 -0.75q-0.25 -0.28125 -0.859375 -0.5q-0.609375 -0.21875 -1.796875 -0.484375q-1.625 -0.359375 -2.296875 -1.03125q-0.671875 -0.671875 -0.671875 -1.734375q0 -0.6875 0.40625 -1.328125q0.421875 -0.640625 1.21875 -1.046875q0.8125 -0.40625 1.9375 -0.40625q1.171875 0 2.0 0.390625q0.84375 0.390625 1.25 0.921875q0.421875 0.515625 0.421875 0.875q0 0.171875 -0.125 0.28125q-0.109375 0.109375 -0.28125 0.109375l-0.703125 0q-0.265625 0 -0.375 -0.203125q-0.3125 -0.359375 -0.53125 -0.546875q-0.21875 -0.203125 -0.625 -0.34375q-0.40625 -0.140625 -1.03125 -0.140625q-0.90625 0 -1.390625 0.390625q-0.484375 0.375 -0.484375 1.015625q0 0.390625 0.203125 0.65625q0.203125 0.265625 0.78125 0.5q0.578125 0.234375 1.71875 0.484375q1.765625 0.375 2.5 1.0625q0.734375 0.6875 0.734375 1.765625q0 0.8125 -0.453125 1.46875q-0.453125 0.640625 -1.359375 1.015625q-0.90625 0.375 -2.15625 0.375z" fill-rule="nonzero"/><path fill="#2f7ee2" d="m190.23235 210.86418l0 0c48.384247 -0.0021514893 89.594345 30.881271 97.20323 72.84544c7.6088867 41.964203 -20.640411 82.561646 -66.63228 95.75812c-45.991867 13.196503 -96.08407 -4.922333 -118.153656 -42.737305c-22.069595 -37.814972 -9.570229 -84.1093 29.482544 -109.19551l7.7280884 9.279266l0 0c-34.58439 21.369095 -45.957817 61.245132 -26.806374 93.985c19.151451 32.7399 63.125786 48.595978 103.64445 37.371704c40.51866 -11.224304 65.51799 -46.187164 58.921677 -82.40503c-6.596344 -36.217865 -42.82437 -62.90753 -85.38698 -62.9057z" fill-rule="evenodd"/><path fill="#2f7ee2" d="m141.74492 226.56921l0 24.533463l-27.934837 -24.533463z" fill-rule="evenodd"/><path fill="#000000" fill-opacity="0.0" d="m119.83906 254.8924l136.78741 0l0 60.125977l-136.78741 0z" fill-rule="evenodd"/><path fill="#000000" d="m143.52705 281.81238q-0.1875 0 -0.296875 -0.125q-0.109375 -0.125 -0.109375 -0.296875l0 -12.1875q0 -0.203125 0.109375 -0.328125q0.109375 -0.125 0.296875 -0.125l4.5625 0q2.125 0 3.328125 1.0q1.203125 1.0 1.203125 2.90625q0 1.40625 -0.71875 2.328125q-0.703125 0.921875 -1.96875 1.265625l2.875 4.984375q0.046875 0.109375 0.046875 0.203125q0 0.15625 -0.109375 0.265625q-0.109375 0.109375 -0.265625 0.109375l-0.8125 0q-0.28125 0 -0.4375 -0.125q-0.15625 -0.140625 -0.296875 -0.375l-2.734375 -4.78125l-3.328125 0l0 4.859375q0 0.171875 -0.125 0.296875q-0.125 0.125 -0.3125 0.125l-0.90625 0zm4.484375 -6.8125q2.8125 0 2.8125 -2.359375q0 -2.375 -2.8125 -2.375l-3.140625 0l0 4.734375l3.140625 0zm10.919937 7.0q-1.90625 0 -3.046875 -1.1875q-1.140625 -1.1875 -1.25 -3.234375l-0.015625 -0.640625l0.015625 -0.609375q0.109375 -2.015625 1.25 -3.203125q1.140625 -1.203125 3.046875 -1.203125q2.046875 0 3.171875 1.3125q1.125 1.296875 1.125 3.546875l0 0.328125q0 0.1875 -0.125 0.3125q-0.109375 0.125 -0.296875 0.125l-6.46875 0l0 0.15625q0.046875 1.21875 0.734375 2.078125q0.6875 0.859375 1.828125 0.859375q0.875 0 1.421875 -0.34375q0.5625 -0.34375 0.84375 -0.71875q0.171875 -0.234375 0.25 -0.28125q0.09375 -0.046875 0.328125 -0.046875l0.8125 0q0.171875 0 0.296875 0.09375q0.125 0.09375 0.125 0.25q0 0.40625 -0.515625 0.984375q-0.5 0.578125 -1.421875 1.0q-0.921875 0.421875 -2.109375 0.421875zm2.609375 -5.734375l0 -0.046875q0 -1.3125 -0.71875 -2.125q-0.703125 -0.828125 -1.890625 -0.828125q-1.21875 0 -1.90625 0.828125q-0.6875 0.8125 -0.6875 2.125l0 0.046875l5.203125 0zm4.4132233 9.09375q-0.1875 0 -0.3125 -0.109375q-0.109375 -0.109375 -0.109375 -0.328125l0 -12.375q0 -0.21875 0.109375 -0.328125q0.125 -0.109375 0.3125 -0.109375l0.78125 0q0.203125 0 0.3125 0.109375q0.125 0.109375 0.125 0.328125l0 0.8125q1.078125 -1.4375 3.078125 -1.4375q1.953125 0 2.9375 1.25q0.984375 1.234375 1.03125 3.15625q0.015625 0.203125 0.015625 0.640625q0 0.421875 -0.015625 0.625q-0.046875 1.90625 -1.03125 3.15625q-0.984375 1.25 -2.9375 1.25q-2.0 0 -3.03125 -1.421875l0 4.34375q0 0.1875 -0.125 0.3125q-0.109375 0.125 -0.296875 0.125l-0.84375 0zm3.9375 -4.8125q1.34375 0 1.953125 -0.84375q0.625 -0.84375 0.671875 -2.203125q0.03125 -0.1875 0.03125 -0.53125q0 -3.59375 -2.65625 -3.59375q-1.296875 0 -1.96875 0.875q-0.65625 0.859375 -0.703125 2.046875q-0.015625 0.203125 -0.015625 0.71875q0 0.53125 0.015625 0.734375q0.046875 1.140625 0.71875 1.96875q0.6875 0.828125 1.953125 0.828125zm10.628693 1.453125q-2.046875 0 -3.15625 -1.15625q-1.109375 -1.15625 -1.1875 -3.078125l-0.015625 -0.796875l0.015625 -0.8125q0.078125 -1.921875 1.203125 -3.078125q1.140625 -1.15625 3.140625 -1.15625q2.015625 0 3.140625 1.15625q1.140625 1.15625 1.21875 3.078125q0.03125 0.40625 0.03125 0.8125q0 0.390625 -0.03125 0.796875q-0.078125 1.921875 -1.1875 3.078125q-1.109375 1.15625 -3.171875 1.15625zm0 -1.40625q1.203125 0 1.890625 -0.75q0.703125 -0.75 0.765625 -2.171875q0.015625 -0.1875 0.015625 -0.703125q0 -0.53125 -0.015625 -0.71875q-0.0625 -1.421875 -0.765625 -2.171875q-0.6875 -0.75 -1.890625 -0.75q-1.1875 0 -1.890625 0.75q-0.6875 0.75 -0.75 2.171875l-0.015625 0.71875l0.015625 0.703125q0.0625 1.421875 0.75 2.171875q0.703125 0.75 1.890625 0.75zm10.061996 1.40625q-1.28125 0 -2.171875 -0.421875q-0.890625 -0.421875 -1.328125 -0.953125q-0.421875 -0.546875 -0.421875 -0.90625q0 -0.1875 0.125 -0.28125q0.140625 -0.109375 0.296875 -0.109375l0.78125 0q0.109375 0 0.171875 0.046875q0.0625 0.03125 0.171875 0.15625q0.4375 0.53125 0.96875 0.828125q0.53125 0.296875 1.421875 0.296875q1.015625 0 1.609375 -0.375q0.609375 -0.375 0.609375 -1.078125q0 -0.46875 -0.265625 -0.75q-0.25 -0.28125 -0.859375 -0.5q-0.609375 -0.21875 -1.796875 -0.484375q-1.625 -0.359375 -2.296875 -1.03125q-0.671875 -0.671875 -0.671875 -1.734375q0 -0.6875 0.40625 -1.328125q0.421875 -0.640625 1.21875 -1.046875q0.8125 -0.40625 1.9375 -0.40625q1.171875 0 2.0 0.390625q0.84375 0.390625 1.25 0.921875q0.421875 0.515625 0.421875 0.875q0 0.171875 -0.125 0.28125q-0.109375 0.109375 -0.28125 0.109375l-0.703125 0q-0.265625 0 -0.375 -0.203125q-0.3125 -0.359375 -0.53125 -0.546875q-0.21875 -0.203125 -0.625 -0.34375q-0.40625 -0.140625 -1.03125 -0.140625q-0.90625 0 -1.390625 0.390625q-0.484375 0.375 -0.484375 1.015625q0 0.390625 0.203125 0.65625q0.203125 0.265625 0.78125 0.5q0.578125 0.234375 1.71875 0.484375q1.765625 0.375 2.5 1.0625q0.734375 0.6875 0.734375 1.765625q0 0.8125 -0.453125 1.46875q-0.453125 0.640625 -1.359375 1.015625q-0.90625 0.375 -2.15625 0.375zm6.430496 -11.71875q-0.171875 0 -0.296875 -0.109375q-0.125 -0.125 -0.125 -0.3125l0 -0.96875q0 -0.1875 0.125 -0.3125q0.125 -0.140625 0.296875 -0.140625l1.109375 0q0.1875 0 0.3125 0.140625q0.140625 0.125 0.140625 0.3125l0 0.96875q0 0.1875 -0.140625 0.3125q-0.125 0.109375 -0.3125 0.109375l-1.109375 0zm0.15625 11.53125q-0.1875 0 -0.3125 -0.125q-0.109375 -0.125 -0.109375 -0.296875l0 -8.84375q0 -0.1875 0.109375 -0.3125q0.125 -0.125 0.3125 -0.125l0.828125 0q0.171875 0 0.296875 0.125q0.125 0.125 0.125 0.3125l0 8.84375q0 0.171875 -0.125 0.296875q-0.125 0.125 -0.296875 0.125l-0.828125 0zm7.7743835 0q-2.890625 0 -2.890625 -3.265625l0 -5.0l-1.46875 0q-0.1875 0 -0.296875 -0.109375q-0.109375 -0.109375 -0.109375 -0.296875l0 -0.59375q0 -0.1875 0.109375 -0.3125q0.109375 -0.125 0.296875 -0.125l1.46875 0l0 -3.109375q0 -0.1875 0.109375 -0.3125q0.125 -0.125 0.3125 -0.125l0.8125 0q0.1875 0 0.3125 0.125q0.125 0.125 0.125 0.3125l0 3.109375l2.3125 0q0.1875 0 0.296875 0.125q0.125 0.125 0.125 0.3125l0 0.59375q0 0.1875 -0.125 0.296875q-0.109375 0.109375 -0.296875 0.109375l-2.3125 0l0 4.875q0 0.953125 0.296875 1.4375q0.3125 0.484375 1.0625 0.484375l1.140625 0q0.171875 0 0.28125 0.125q0.125 0.109375 0.125 0.296875l0 0.625q0 0.171875 -0.125 0.296875q-0.109375 0.125 -0.28125 0.125l-1.28125 0zm7.441757 0.1875q-2.046875 0 -3.15625 -1.15625q-1.109375 -1.15625 -1.1875 -3.078125l-0.015625 -0.796875l0.015625 -0.8125q0.078125 -1.921875 1.203125 -3.078125q1.140625 -1.15625 3.140625 -1.15625q2.015625 0 3.140625 1.15625q1.140625 1.15625 1.21875 3.078125q0.03125 0.40625 0.03125 0.8125q0 0.390625 -0.03125 0.796875q-0.078125 1.921875 -1.1875 3.078125q-1.109375 1.15625 -3.171875 1.15625zm0 -1.40625q1.203125 0 1.890625 -0.75q0.703125 -0.75 0.765625 -2.171875q0.015625 -0.1875 0.015625 -0.703125q0 -0.53125 -0.015625 -0.71875q-0.0625 -1.421875 -0.765625 -2.171875q-0.6875 -0.75 -1.890625 -0.75q-1.1875 0 -1.890625 0.75q-0.6875 0.75 -0.75 2.171875l-0.015625 0.71875l0.015625 0.703125q0.0625 1.421875 0.75 2.171875q0.703125 0.75 1.890625 0.75zm7.1713715 1.21875q-0.1875 0 -0.3125 -0.125q-0.109375 -0.125 -0.109375 -0.296875l0 -8.828125q0 -0.1875 0.109375 -0.3125q0.125 -0.140625 0.3125 -0.140625l0.78125 0q0.203125 0 0.328125 0.125q0.125 0.125 0.125 0.328125l0 0.8125q0.765625 -1.265625 2.59375 -1.265625l0.71875 0q0.203125 0 0.3125 0.109375q0.125 0.109375 0.125 0.328125l0 0.6875q0 0.1875 -0.125 0.3125q-0.109375 0.109375 -0.3125 0.109375l-1.0625 0q-1.015625 0 -1.609375 0.609375q-0.59375 0.59375 -0.59375 1.609375l0 5.515625q0 0.171875 -0.125 0.296875q-0.125 0.125 -0.3125 0.125l-0.84375 0zm8.28038 3.546875q-0.171875 0 -0.28125 -0.109375q-0.109375 -0.109375 -0.109375 -0.265625q0 -0.0625 0.09375 -0.34375l1.453125 -3.40625l-3.5625 -8.421875q-0.109375 -0.21875 -0.109375 -0.3125q0.015625 -0.171875 0.125 -0.28125q0.125 -0.109375 0.265625 -0.109375l0.859375 0q0.296875 0 0.453125 0.296875l2.875 6.875l2.9375 -6.875q0.15625 -0.296875 0.453125 -0.296875l0.84375 0q0.140625 0 0.25 0.109375q0.109375 0.109375 0.109375 0.265625q0 0.125 -0.09375 0.328125l-5.265625 12.25q-0.09375 0.140625 -0.203125 0.21875q-0.109375 0.078125 -0.265625 0.078125l-0.828125 0z" fill-rule="nonzero"/><path fill="#000000" d="m158.46523 303.99988q-2.40625 0 -3.71875 -1.296875q-1.296875 -1.296875 -1.296875 -3.921875l0 -7.578125q0 -0.203125 0.109375 -0.328125q0.109375 -0.125 0.296875 -0.125l0.890625 0q0.21875 0 0.328125 0.125q0.125 0.125 0.125 0.328125l0 7.609375q0 1.828125 0.84375 2.734375q0.859375 0.890625 2.421875 0.890625q1.546875 0 2.390625 -0.90625q0.859375 -0.90625 0.859375 -2.71875l0 -7.609375q0 -0.203125 0.109375 -0.328125q0.109375 -0.125 0.3125 -0.125l0.90625 0q0.1875 0 0.296875 0.125q0.125 0.125 0.125 0.328125l0 7.578125q0 2.625 -1.296875 3.921875q-1.296875 1.296875 -3.703125 1.296875zm8.356247 3.359375q-0.1875 0 -0.3125 -0.109375q-0.109375 -0.109375 -0.109375 -0.328125l0 -12.375q0 -0.21875 0.109375 -0.328125q0.125 -0.109375 0.3125 -0.109375l0.78125 0q0.203125 0 0.3125 0.109375q0.125 0.109375 0.125 0.328125l0 0.8125q1.078125 -1.4375 3.078125 -1.4375q1.953125 0 2.9375 1.25q0.984375 1.234375 1.03125 3.15625q0.015625 0.203125 0.015625 0.640625q0 0.421875 -0.015625 0.625q-0.046875 1.90625 -1.03125 3.15625q-0.984375 1.25 -2.9375 1.25q-2.0 0 -3.03125 -1.421875l0 4.34375q0 0.1875 -0.125 0.3125q-0.109375 0.125 -0.296875 0.125l-0.84375 0zm3.9375 -4.8125q1.34375 0 1.953125 -0.84375q0.625 -0.84375 0.671875 -2.203125q0.03125 -0.1875 0.03125 -0.53125q0 -3.59375 -2.65625 -3.59375q-1.296875 0 -1.96875 0.875q-0.65625 0.859375 -0.703125 2.046875q-0.015625 0.203125 -0.015625 0.71875q0 0.53125 0.015625 0.734375q0.046875 1.140625 0.71875 1.96875q0.6875 0.828125 1.953125 0.828125zm10.238068 1.453125q-1.953125 0 -2.9375 -1.265625q-0.96875 -1.265625 -1.046875 -3.21875l-0.015625 -0.546875l0.015625 -0.5625q0.078125 -1.921875 1.0625 -3.203125q0.984375 -1.28125 2.921875 -1.28125q1.953125 0 3.03125 1.390625l0 -4.3125q0 -0.1875 0.109375 -0.3125q0.125 -0.125 0.3125 -0.125l0.84375 0q0.1875 0 0.296875 0.125q0.125 0.125 0.125 0.3125l0 12.390625q0 0.171875 -0.125 0.296875q-0.109375 0.125 -0.296875 0.125l-0.796875 0q-0.1875 0 -0.3125 -0.125q-0.109375 -0.125 -0.109375 -0.296875l0 -0.8125q-1.0625 1.421875 -3.078125 1.421875zm0.359375 -1.453125q1.3125 0 1.953125 -0.859375q0.65625 -0.875 0.71875 -2.078125q0.015625 -0.203125 0.015625 -0.703125q0 -0.515625 -0.015625 -0.734375q-0.046875 -1.125 -0.734375 -1.953125q-0.671875 -0.84375 -1.9375 -0.84375q-1.34375 0 -1.96875 0.84375q-0.609375 0.84375 -0.65625 2.203125l-0.015625 0.546875q0 3.578125 2.640625 3.578125zm9.863068 1.453125q-0.90625 0 -1.6875 -0.375q-0.765625 -0.375 -1.234375 -1.015625q-0.453125 -0.640625 -0.453125 -1.421875q0 -1.234375 1.0 -2.015625q1.015625 -0.78125 2.75 -1.046875l2.796875 -0.390625l0 -0.546875q0 -1.921875 -2.21875 -1.921875q-0.859375 0 -1.375 0.34375q-0.515625 0.34375 -0.765625 0.8125q-0.078125 0.1875 -0.15625 0.25q-0.078125 0.0625 -0.234375 0.0625l-0.734375 0q-0.15625 0 -0.28125 -0.109375q-0.125 -0.125 -0.125 -0.296875q0 -0.421875 0.40625 -0.984375q0.40625 -0.578125 1.234375 -1.0q0.84375 -0.421875 2.0625 -0.421875q2.078125 0 2.984375 0.96875q0.90625 0.96875 0.90625 2.421875l0 6.078125q0 0.171875 -0.125 0.296875q-0.109375 0.125 -0.296875 0.125l-0.828125 0q-0.1875 0 -0.296875 -0.125q-0.109375 -0.125 -0.109375 -0.296875l0 -0.828125q-0.40625 0.609375 -1.203125 1.03125q-0.78125 0.40625 -2.015625 0.40625zm0.375 -1.359375q1.234375 0 2.015625 -0.796875q0.78125 -0.8125 0.78125 -2.34375l0 -0.515625l-2.171875 0.3125q-1.34375 0.1875 -2.046875 0.640625q-0.6875 0.4375 -0.6875 1.109375q0 0.765625 0.625 1.1875q0.625 0.40625 1.484375 0.40625zm10.932816 1.171875q-2.890625 0 -2.890625 -3.265625l0 -5.0l-1.46875 0q-0.1875 0 -0.296875 -0.109375q-0.109375 -0.109375 -0.109375 -0.296875l0 -0.59375q0 -0.1875 0.109375 -0.3125q0.109375 -0.125 0.296875 -0.125l1.46875 0l0 -3.109375q0 -0.1875 0.109375 -0.3125q0.125 -0.125 0.3125 -0.125l0.8125 0q0.1875 0 0.3125 0.125q0.125 0.125 0.125 0.3125l0 3.109375l2.3125 0q0.1875 0 0.296875 0.125q0.125 0.125 0.125 0.3125l0 0.59375q0 0.1875 -0.125 0.296875q-0.109375 0.109375 -0.296875 0.109375l-2.3125 0l0 4.875q0 0.953125 0.296875 1.4375q0.3125 0.484375 1.0625 0.484375l1.140625 0q0.171875 0 0.28125 0.125q0.125 0.109375 0.125 0.296875l0 0.625q0 0.171875 -0.125 0.296875q-0.109375 0.125 -0.28125 0.125l-1.28125 0zm7.363632 0.1875q-1.90625 0 -3.046875 -1.1875q-1.140625 -1.1875 -1.25 -3.234375l-0.015625 -0.640625l0.015625 -0.609375q0.109375 -2.015625 1.25 -3.203125q1.140625 -1.203125 3.046875 -1.203125q2.046875 0 3.171875 1.3125q1.125 1.296875 1.125 3.546875l0 0.328125q0 0.1875 -0.125 0.3125q-0.109375 0.125 -0.296875 0.125l-6.46875 0l0 0.15625q0.046875 1.21875 0.734375 2.078125q0.6875 0.859375 1.828125 0.859375q0.875 0 1.421875 -0.34375q0.5625 -0.34375 0.84375 -0.71875q0.171875 -0.234375 0.25 -0.28125q0.09375 -0.046875 0.328125 -0.046875l0.8125 0q0.171875 0 0.296875 0.09375q0.125 0.09375 0.125 0.25q0 0.40625 -0.515625 0.984375q-0.5 0.578125 -1.421875 1.0q-0.921875 0.421875 -2.109375 0.421875zm2.609375 -5.734375l0 -0.046875q0 -1.3125 -0.71875 -2.125q-0.703125 -0.828125 -1.890625 -0.828125q-1.21875 0 -1.90625 0.828125q-0.6875 0.8125 -0.6875 2.125l0 0.046875l5.203125 0zm7.2882233 5.734375q-1.28125 0 -2.171875 -0.421875q-0.890625 -0.421875 -1.328125 -0.953125q-0.421875 -0.546875 -0.421875 -0.90625q0 -0.1875 0.125 -0.28125q0.140625 -0.109375 0.296875 -0.109375l0.78125 0q0.109375 0 0.171875 0.046875q0.0625 0.03125 0.171875 0.15625q0.4375 0.53125 0.96875 0.828125q0.53125 0.296875 1.421875 0.296875q1.015625 0 1.609375 -0.375q0.609375 -0.375 0.609375 -1.078125q0 -0.46875 -0.265625 -0.75q-0.25 -0.28125 -0.859375 -0.5q-0.609375 -0.21875 -1.796875 -0.484375q-1.625 -0.359375 -2.296875 -1.03125q-0.671875 -0.671875 -0.671875 -1.734375q0 -0.6875 0.40625 -1.328125q0.421875 -0.640625 1.21875 -1.046875q0.8125 -0.40625 1.9375 -0.40625q1.171875 0 2.0 0.390625q0.84375 0.390625 1.25 0.921875q0.421875 0.515625 0.421875 0.875q0 0.171875 -0.125 0.28125q-0.109375 0.109375 -0.28125 0.109375l-0.703125 0q-0.265625 0 -0.375 -0.203125q-0.3125 -0.359375 -0.53125 -0.546875q-0.21875 -0.203125 -0.625 -0.34375q-0.40625 -0.140625 -1.03125 -0.140625q-0.90625 0 -1.390625 0.390625q-0.484375 0.375 -0.484375 1.015625q0 0.390625 0.203125 0.65625q0.203125 0.265625 0.78125 0.5q0.578125 0.234375 1.71875 0.484375q1.765625 0.375 2.5 1.0625q0.734375 0.6875 0.734375 1.765625q0 0.8125 -0.453125 1.46875q-0.453125 0.640625 -1.359375 1.015625q-0.90625 0.375 -2.15625 0.375z" fill-rule="nonzero"/><path fill="#2f7ee2" d="m407.82028 210.86418l0 0c48.384247 -0.0021514893 89.59433 30.881271 97.20322 72.84544c7.6088867 41.964203 -20.640411 82.561646 -66.63226 95.75812c-45.991882 13.196503 -96.084076 -4.922333 -118.153656 -42.737305c-22.06961 -37.814972 -9.570221 -84.1093 29.482544 -109.19551l7.7280884 9.279266l0 0c-34.58441 21.369095 -45.957825 61.245132 -26.806366 93.985c19.151428 32.7399 63.125763 48.595978 103.64444 37.371704c40.518646 -11.224304 65.517975 -46.187164 58.92166 -82.40503c-6.596344 -36.217865 -42.82437 -62.90753 -85.38696 -62.9057z" fill-rule="evenodd"/><path fill="#2f7ee2" d="m359.33286 226.56921l0 24.533463l-27.934845 -24.533463z" fill-rule="evenodd"/><path fill="#000000" fill-opacity="0.0" d="m358.4716 254.89195l98.70868 0l0 60.12599l-98.70868 0z" fill-rule="evenodd"/><path fill="#000000" d="m396.68478 281.81195q-0.1875 0 -0.3125 -0.125q-0.109375 -0.125 -0.109375 -0.296875l0 -11.03125l-3.609375 0q-0.1875 0 -0.3125 -0.125q-0.109375 -0.125 -0.109375 -0.3125l0 -0.71875q0 -0.203125 0.109375 -0.328125q0.125 -0.125 0.3125 -0.125l8.953125 0q0.21875 0 0.328125 0.125q0.109375 0.125 0.109375 0.328125l0 0.71875q0 0.1875 -0.125 0.3125q-0.125 0.125 -0.3125 0.125l-3.578125 0l0 11.03125q0 0.171875 -0.140625 0.296875q-0.125 0.125 -0.296875 0.125l-0.90625 0zm9.920898 0.1875q-0.90625 0 -1.6875 -0.375q-0.765625 -0.375 -1.234375 -1.015625q-0.453125 -0.640625 -0.453125 -1.421875q0 -1.234375 1.0 -2.015625q1.015625 -0.78125 2.75 -1.046875l2.796875 -0.390625l0 -0.546875q0 -1.921875 -2.21875 -1.921875q-0.859375 0 -1.375 0.34375q-0.515625 0.34375 -0.765625 0.8125q-0.078125 0.1875 -0.15625 0.25q-0.078125 0.0625 -0.234375 0.0625l-0.734375 0q-0.15625 0 -0.28125 -0.109375q-0.125 -0.125 -0.125 -0.296875q0 -0.421875 0.40625 -0.984375q0.40625 -0.578125 1.234375 -1.0q0.84375 -0.421875 2.0625 -0.421875q2.078125 0 2.984375 0.96875q0.90625 0.96875 0.90625 2.421875l0 6.078125q0 0.171875 -0.125 0.296875q-0.109375 0.125 -0.296875 0.125l-0.828125 0q-0.1875 0 -0.296875 -0.125q-0.109375 -0.125 -0.109375 -0.296875l0 -0.828125q-0.40625 0.609375 -1.203125 1.03125q-0.78125 0.40625 -2.015625 0.40625zm0.375 -1.359375q1.234375 0 2.015625 -0.796875q0.78125 -0.8125 0.78125 -2.34375l0 -0.515625l-2.171875 0.3125q-1.34375 0.1875 -2.046875 0.640625q-0.6875 0.4375 -0.6875 1.109375q0 0.765625 0.625 1.1875q0.625 0.40625 1.484375 0.40625zm11.135956 5.28125q-1.546875 0 -2.484375 -0.53125q-0.921875 -0.515625 -1.3125 -1.1875q-0.375 -0.671875 -0.375 -1.15625q0 -0.171875 0.125 -0.296875q0.140625 -0.109375 0.296875 -0.109375l0.828125 0q0.171875 0 0.28125 0.078125q0.109375 0.078125 0.1875 0.3125q0.515625 1.484375 2.375 1.484375q1.390625 0 2.0625 -0.59375q0.671875 -0.59375 0.671875 -2.109375l0 -1.28125q-1.078125 1.375 -3.015625 1.375q-1.984375 0 -2.96875 -1.265625q-0.96875 -1.265625 -1.03125 -3.21875l-0.015625 -0.515625l0.015625 -0.5q0.0625 -1.921875 1.03125 -3.203125q0.984375 -1.28125 2.96875 -1.28125q1.953125 0 3.046875 1.4375l0 -0.796875q0 -0.1875 0.125 -0.3125q0.125 -0.140625 0.3125 -0.140625l0.796875 0q0.1875 0 0.3125 0.140625q0.125 0.125 0.125 0.3125l0 9.046875q0 4.3125 -4.359375 4.3125zm-0.03125 -5.46875q1.3125 0 1.96875 -0.84375q0.65625 -0.859375 0.71875 -2.046875q0.015625 -0.171875 0.015625 -0.65625q0 -0.46875 -0.015625 -0.640625q-0.0625 -1.1875 -0.71875 -2.03125q-0.65625 -0.859375 -1.96875 -0.859375q-1.34375 0 -1.953125 0.859375q-0.59375 0.84375 -0.65625 2.1875l-0.015625 0.484375l0.015625 0.5q0.0625 1.34375 0.65625 2.203125q0.609375 0.84375 1.953125 0.84375z" fill-rule="nonzero"/><path fill="#000000" d="m378.0584 303.99945q-2.40625 0 -3.71875 -1.296875q-1.296875 -1.296875 -1.296875 -3.921875l0 -7.578125q0 -0.203125 0.109375 -0.328125q0.109375 -0.125 0.296875 -0.125l0.890625 0q0.21875 0 0.328125 0.125q0.125 0.125 0.125 0.328125l0 7.609375q0 1.828125 0.84375 2.734375q0.859375 0.890625 2.421875 0.890625q1.546875 0 2.390625 -0.90625q0.859375 -0.90625 0.859375 -2.71875l0 -7.609375q0 -0.203125 0.109375 -0.328125q0.109375 -0.125 0.3125 -0.125l0.90625 0q0.1875 0 0.296875 0.125q0.125 0.125 0.125 0.328125l0 7.578125q0 2.625 -1.296875 3.921875q-1.296875 1.296875 -3.703125 1.296875zm8.356232 3.359375q-0.1875 0 -0.3125 -0.109375q-0.109375 -0.109375 -0.109375 -0.328125l0 -12.375q0 -0.21875 0.109375 -0.328125q0.125 -0.109375 0.3125 -0.109375l0.78125 0q0.203125 0 0.3125 0.109375q0.125 0.109375 0.125 0.328125l0 0.8125q1.078125 -1.4375 3.078125 -1.4375q1.953125 0 2.9375 1.25q0.984375 1.234375 1.03125 3.15625q0.015625 0.203125 0.015625 0.640625q0 0.421875 -0.015625 0.625q-0.046875 1.90625 -1.03125 3.15625q-0.984375 1.25 -2.9375 1.25q-2.0 0 -3.03125 -1.421875l0 4.34375q0 0.1875 -0.125 0.3125q-0.109375 0.125 -0.296875 0.125l-0.84375 0zm3.9375 -4.8125q1.34375 0 1.953125 -0.84375q0.625 -0.84375 0.671875 -2.203125q0.03125 -0.1875 0.03125 -0.53125q0 -3.59375 -2.65625 -3.59375q-1.296875 0 -1.96875 0.875q-0.65625 0.859375 -0.703125 2.046875q-0.015625 0.203125 -0.015625 0.71875q0 0.53125 0.015625 0.734375q0.046875 1.140625 0.71875 1.96875q0.6875 0.828125 1.953125 0.828125zm10.238068 1.453125q-1.953125 0 -2.9375 -1.265625q-0.96875 -1.265625 -1.046875 -3.21875l-0.015625 -0.546875l0.015625 -0.5625q0.078125 -1.921875 1.0625 -3.203125q0.984375 -1.28125 2.921875 -1.28125q1.953125 0 3.03125 1.390625l0 -4.3125q0 -0.1875 0.109375 -0.3125q0.125 -0.125 0.3125 -0.125l0.84375 0q0.1875 0 0.296875 0.125q0.125 0.125 0.125 0.3125l0 12.390625q0 0.171875 -0.125 0.296875q-0.109375 0.125 -0.296875 0.125l-0.796875 0q-0.1875 0 -0.3125 -0.125q-0.109375 -0.125 -0.109375 -0.296875l0 -0.8125q-1.0625 1.421875 -3.078125 1.421875zm0.359375 -1.453125q1.3125 0 1.953125 -0.859375q0.65625 -0.875 0.71875 -2.078125q0.015625 -0.203125 0.015625 -0.703125q0 -0.515625 -0.015625 -0.734375q-0.046875 -1.125 -0.734375 -1.953125q-0.671875 -0.84375 -1.9375 -0.84375q-1.34375 0 -1.96875 0.84375q-0.609375 0.84375 -0.65625 2.203125l-0.015625 0.546875q0 3.578125 2.640625 3.578125zm9.863068 1.453125q-0.90625 0 -1.6875 -0.375q-0.765625 -0.375 -1.234375 -1.015625q-0.453125 -0.640625 -0.453125 -1.421875q0 -1.234375 1.0 -2.015625q1.015625 -0.78125 2.75 -1.046875l2.796875 -0.390625l0 -0.546875q0 -1.921875 -2.21875 -1.921875q-0.859375 0 -1.375 0.34375q-0.515625 0.34375 -0.765625 0.8125q-0.078125 0.1875 -0.15625 0.25q-0.078125 0.0625 -0.234375 0.0625l-0.734375 0q-0.15625 0 -0.28125 -0.109375q-0.125 -0.125 -0.125 -0.296875q0 -0.421875 0.40625 -0.984375q0.40625 -0.578125 1.234375 -1.0q0.84375 -0.421875 2.0625 -0.421875q2.078125 0 2.984375 0.96875q0.90625 0.96875 0.90625 2.421875l0 6.078125q0 0.171875 -0.125 0.296875q-0.109375 0.125 -0.296875 0.125l-0.828125 0q-0.1875 0 -0.296875 -0.125q-0.109375 -0.125 -0.109375 -0.296875l0 -0.828125q-0.40625 0.609375 -1.203125 1.03125q-0.78125 0.40625 -2.015625 0.40625zm0.375 -1.359375q1.234375 0 2.015625 -0.796875q0.78125 -0.8125 0.78125 -2.34375l0 -0.515625l-2.171875 0.3125q-1.34375 0.1875 -2.046875 0.640625q-0.6875 0.4375 -0.6875 1.109375q0 0.765625 0.625 1.1875q0.625 0.40625 1.484375 0.40625zm10.932831 1.171875q-2.890625 0 -2.890625 -3.265625l0 -5.0l-1.46875 0q-0.1875 0 -0.296875 -0.109375q-0.109375 -0.109375 -0.109375 -0.296875l0 -0.59375q0 -0.1875 0.109375 -0.3125q0.109375 -0.125 0.296875 -0.125l1.46875 0l0 -3.109375q0 -0.1875 0.109375 -0.3125q0.125 -0.125 0.3125 -0.125l0.8125 0q0.1875 0 0.3125 0.125q0.125 0.125 0.125 0.3125l0 3.109375l2.3125 0q0.1875 0 0.296875 0.125q0.125 0.125 0.125 0.3125l0 0.59375q0 0.1875 -0.125 0.296875q-0.109375 0.109375 -0.296875 0.109375l-2.3125 0l0 4.875q0 0.953125 0.296875 1.4375q0.3125 0.484375 1.0625 0.484375l1.140625 0q0.171875 0 0.28125 0.125q0.125 0.109375 0.125 0.296875l0 0.625q0 0.171875 -0.125 0.296875q-0.109375 0.125 -0.28125 0.125l-1.28125 0zm7.363617 0.1875q-1.90625 0 -3.046875 -1.1875q-1.140625 -1.1875 -1.25 -3.234375l-0.015625 -0.640625l0.015625 -0.609375q0.109375 -2.015625 1.25 -3.203125q1.140625 -1.203125 3.046875 -1.203125q2.046875 0 3.171875 1.3125q1.125 1.296875 1.125 3.546875l0 0.328125q0 0.1875 -0.125 0.3125q-0.109375 0.125 -0.296875 0.125l-6.46875 0l0 0.15625q0.046875 1.21875 0.734375 2.078125q0.6875 0.859375 1.828125 0.859375q0.875 0 1.421875 -0.34375q0.5625 -0.34375 0.84375 -0.71875q0.171875 -0.234375 0.25 -0.28125q0.09375 -0.046875 0.328125 -0.046875l0.8125 0q0.171875 0 0.296875 0.09375q0.125 0.09375 0.125 0.25q0 0.40625 -0.515625 0.984375q-0.5 0.578125 -1.421875 1.0q-0.921875 0.421875 -2.109375 0.421875zm2.609375 -5.734375l0 -0.046875q0 -1.3125 -0.71875 -2.125q-0.703125 -0.828125 -1.890625 -0.828125q-1.21875 0 -1.90625 0.828125q-0.6875 0.8125 -0.6875 2.125l0 0.046875l5.203125 0zm7.2882385 5.734375q-1.28125 0 -2.171875 -0.421875q-0.890625 -0.421875 -1.328125 -0.953125q-0.421875 -0.546875 -0.421875 -0.90625q0 -0.1875 0.125 -0.28125q0.140625 -0.109375 0.296875 -0.109375l0.78125 0q0.109375 0 0.171875 0.046875q0.0625 0.03125 0.171875 0.15625q0.4375 0.53125 0.96875 0.828125q0.53125 0.296875 1.421875 0.296875q1.015625 0 1.609375 -0.375q0.609375 -0.375 0.609375 -1.078125q0 -0.46875 -0.265625 -0.75q-0.25 -0.28125 -0.859375 -0.5q-0.609375 -0.21875 -1.796875 -0.484375q-1.625 -0.359375 -2.296875 -1.03125q-0.671875 -0.671875 -0.671875 -1.734375q0 -0.6875 0.40625 -1.328125q0.421875 -0.640625 1.21875 -1.046875q0.8125 -0.40625 1.9375 -0.40625q1.171875 0 2.0 0.390625q0.84375 0.390625 1.25 0.921875q0.421875 0.515625 0.421875 0.875q0 0.171875 -0.125 0.28125q-0.109375 0.109375 -0.28125 0.109375l-0.703125 0q-0.265625 0 -0.375 -0.203125q-0.3125 -0.359375 -0.53125 -0.546875q-0.21875 -0.203125 -0.625 -0.34375q-0.40625 -0.140625 -1.03125 -0.140625q-0.90625 0 -1.390625 0.390625q-0.484375 0.375 -0.484375 1.015625q0 0.390625 0.203125 0.65625q0.203125 0.265625 0.78125 0.5q0.578125 0.234375 1.71875 0.484375q1.765625 0.375 2.5 1.0625q0.734375 0.6875 0.734375 1.765625q0 0.8125 -0.453125 1.46875q-0.453125 0.640625 -1.359375 1.015625q-0.90625 0.375 -2.15625 0.375z" fill-rule="nonzero"/><path fill="#307fe2" d="m662.52496 128.51091l0 42.566925l8.811035 0l-17.62207 17.62204l-17.62207 -17.62204l8.811035 0l0 -42.566925z" fill-rule="evenodd"/><path stroke="#666666" stroke-width="1.0" stroke-linejoin="round" stroke-linecap="butt" d="m662.52496 128.51091l0 42.566925l8.811035 0l-17.62207 17.62204l-17.62207 -17.62204l8.811035 0l0 -42.566925z" fill-rule="evenodd"/><path fill="#000000" fill-opacity="0.0" d="m671.33514 120.93307l196.85034 0l0 39.968513l-196.85034 0z" fill-rule="evenodd"/><path fill="#000000" d="m681.77264 147.85307l0 -13.359375l5.046875 0q1.328125 0 2.03125 0.125q0.96875 0.171875 1.640625 0.640625q0.671875 0.453125 1.078125 1.28125q0.40625 0.828125 0.40625 1.828125q0 1.703125 -1.09375 2.890625q-1.078125 1.171875 -3.921875 1.171875l-3.421875 0l0 5.421875l-1.765625 0zm1.765625 -7.0l3.453125 0q1.71875 0 2.4375 -0.640625q0.71875 -0.640625 0.71875 -1.796875q0 -0.84375 -0.421875 -1.4375q-0.421875 -0.59375 -1.125 -0.78125q-0.4375 -0.125 -1.640625 -0.125l-3.421875 0l0 4.78125zm10.1466675 0.5q0 -3.328125 1.78125 -5.203125q1.78125 -1.890625 4.609375 -1.890625q1.84375 0 3.328125 0.890625q1.484375 0.875 2.265625 2.46875q0.78125 1.578125 0.78125 3.578125q0 2.03125 -0.828125 3.640625q-0.8125 1.59375 -2.3125 2.421875q-1.5 0.828125 -3.25 0.828125q-1.875 0 -3.359375 -0.90625q-1.484375 -0.921875 -2.25 -2.5q-0.765625 -1.578125 -0.765625 -3.328125zm1.8125 0.015625q0 2.421875 1.296875 3.8125q1.296875 1.390625 3.265625 1.390625q2.0 0 3.28125 -1.40625q1.28125 -1.40625 1.28125 -3.984375q0 -1.625 -0.546875 -2.84375q-0.546875 -1.21875 -1.609375 -1.875q-1.0625 -0.671875 -2.375 -0.671875q-1.890625 0 -3.25 1.296875q-1.34375 1.28125 -1.34375 4.28125zm12.636414 2.1875l1.65625 -0.140625q0.125 1.0 0.546875 1.640625q0.4375 0.640625 1.34375 1.046875q0.921875 0.390625 2.0625 0.390625q1.0 0 1.78125 -0.296875q0.78125 -0.296875 1.15625 -0.8125q0.375 -0.53125 0.375 -1.15625q0 -0.625 -0.375 -1.09375q-0.359375 -0.46875 -1.1875 -0.796875q-0.546875 -0.203125 -2.390625 -0.640625q-1.828125 -0.453125 -2.5625 -0.84375q-0.96875 -0.5 -1.4375 -1.234375q-0.46875 -0.75 -0.46875 -1.671875q0 -1.0 0.578125 -1.875q0.578125 -0.890625 1.671875 -1.34375q1.109375 -0.453125 2.453125 -0.453125q1.484375 0 2.609375 0.484375q1.140625 0.46875 1.75 1.40625q0.609375 0.921875 0.65625 2.09375l-1.6875 0.125q-0.140625 -1.265625 -0.9375 -1.90625q-0.78125 -0.65625 -2.3125 -0.65625q-1.609375 0 -2.34375 0.59375q-0.734375 0.59375 -0.734375 1.421875q0 0.71875 0.53125 1.171875q0.5 0.46875 2.65625 0.96875q2.15625 0.484375 2.953125 0.84375q1.171875 0.53125 1.71875 1.359375q0.5625 0.828125 0.5625 1.90625q0 1.0625 -0.609375 2.015625q-0.609375 0.9375 -1.75 1.46875q-1.140625 0.515625 -2.578125 0.515625q-1.8125 0 -3.046875 -0.53125q-1.21875 -0.53125 -1.921875 -1.59375q-0.6875 -1.0625 -0.71875 -2.40625zm16.443604 4.296875l0 -11.78125l-4.40625 0l0 -1.578125l10.578125 0l0 1.578125l-4.40625 0l0 11.78125l-1.765625 0zm11.735535 0.234375l3.875 -13.8125l1.3125 0l-3.859375 13.8125l-1.328125 0zm6.4176636 -11.703125l0 -1.890625l1.640625 0l0 1.890625l-1.640625 0zm0 11.46875l0 -9.671875l1.640625 0l0 9.671875l-1.640625 0zm4.1448364 0l0 -9.671875l1.46875 0l0 1.359375q0.453125 -0.71875 1.203125 -1.140625q0.765625 -0.4375 1.71875 -0.4375q1.078125 0 1.765625 0.453125q0.6875 0.4375 0.96875 1.234375q1.15625 -1.6875 2.984375 -1.6875q1.453125 0 2.21875 0.796875q0.78125 0.796875 0.78125 2.453125l0 6.640625l-1.640625 0l0 -6.09375q0 -0.984375 -0.15625 -1.40625q-0.15625 -0.4375 -0.578125 -0.703125q-0.421875 -0.265625 -0.984375 -0.265625q-1.015625 0 -1.6875 0.6875q-0.671875 0.671875 -0.671875 2.15625l0 5.625l-1.640625 0l0 -6.28125q0 -1.09375 -0.40625 -1.640625q-0.40625 -0.546875 -1.3125 -0.546875q-0.6875 0 -1.28125 0.359375q-0.59375 0.359375 -0.859375 1.0625q-0.25 0.703125 -0.25 2.03125l0 5.015625l-1.640625 0zm21.853271 -1.1875q-0.921875 0.765625 -1.765625 1.09375q-0.828125 0.3125 -1.796875 0.3125q-1.59375 0 -2.453125 -0.78125q-0.859375 -0.78125 -0.859375 -1.984375q0 -0.71875 0.328125 -1.296875q0.328125 -0.59375 0.84375 -0.9375q0.53125 -0.359375 1.1875 -0.546875q0.46875 -0.125 1.453125 -0.25q1.984375 -0.234375 2.921875 -0.5625q0.015625 -0.34375 0.015625 -0.421875q0 -1.0 -0.46875 -1.421875q-0.625 -0.546875 -1.875 -0.546875q-1.15625 0 -1.703125 0.40625q-0.546875 0.40625 -0.8125 1.421875l-1.609375 -0.21875q0.21875 -1.015625 0.71875 -1.640625q0.5 -0.640625 1.453125 -0.984375q0.953125 -0.34375 2.1875 -0.34375q1.25 0 2.015625 0.296875q0.78125 0.28125 1.140625 0.734375q0.375 0.4375 0.515625 1.109375q0.078125 0.421875 0.078125 1.515625l0 2.1875q0 2.28125 0.109375 2.890625q0.109375 0.59375 0.40625 1.15625l-1.703125 0q-0.265625 -0.515625 -0.328125 -1.1875zm-0.140625 -3.671875q-0.890625 0.375 -2.671875 0.625q-1.015625 0.140625 -1.4375 0.328125q-0.421875 0.1875 -0.65625 0.53125q-0.21875 0.34375 -0.21875 0.78125q0 0.65625 0.5 1.09375q0.5 0.4375 1.453125 0.4375q0.9375 0 1.671875 -0.40625q0.75 -0.421875 1.09375 -1.140625q0.265625 -0.5625 0.265625 -1.640625l0 -0.609375zm3.8913574 5.65625l1.59375 0.234375q0.109375 0.75 0.5625 1.078125q0.609375 0.453125 1.671875 0.453125q1.140625 0 1.75 -0.453125q0.625 -0.453125 0.84375 -1.265625q0.125 -0.5 0.109375 -2.109375q-1.0625 1.265625 -2.671875 1.265625q-2.0 0 -3.09375 -1.4375q-1.09375 -1.4375 -1.09375 -3.453125q0 -1.390625 0.5 -2.5625q0.515625 -1.171875 1.453125 -1.796875q0.953125 -0.640625 2.25 -0.640625q1.703125 0 2.8125 1.375l0 -1.15625l1.515625 0l0 8.359375q0 2.265625 -0.46875 3.203125q-0.453125 0.9375 -1.453125 1.484375q-0.984375 0.546875 -2.453125 0.546875q-1.71875 0 -2.796875 -0.78125q-1.0625 -0.765625 -1.03125 -2.34375zm1.359375 -5.8125q0 1.90625 0.75 2.78125q0.765625 0.875 1.90625 0.875q1.125 0 1.890625 -0.859375q0.765625 -0.875 0.765625 -2.734375q0 -1.78125 -0.796875 -2.671875q-0.78125 -0.90625 -1.890625 -0.90625q-1.09375 0 -1.859375 0.890625q-0.765625 0.875 -0.765625 2.625zm15.953857 1.90625l1.6875 0.203125q-0.40625 1.484375 -1.484375 2.3125q-1.078125 0.8125 -2.765625 0.8125q-2.125 0 -3.375 -1.296875q-1.234375 -1.3125 -1.234375 -3.671875q0 -2.453125 1.25 -3.796875q1.265625 -1.34375 3.265625 -1.34375q1.9375 0 3.15625 1.328125q1.234375 1.3125 1.234375 3.703125q0 0.15625 0 0.4375l-7.21875 0q0.09375 1.59375 0.90625 2.453125q0.8125 0.84375 2.015625 0.84375q0.90625 0 1.546875 -0.46875q0.640625 -0.484375 1.015625 -1.515625zm-5.390625 -2.65625l5.40625 0q-0.109375 -1.21875 -0.625 -1.828125q-0.78125 -0.953125 -2.03125 -0.953125q-1.125 0 -1.90625 0.765625q-0.765625 0.75 -0.84375 2.015625z" fill-rule="nonzero"/><path fill="#5bc1e7" d="m152.2695 222.13124l0 -49.702576l0 0c0 -20.751007 16.822006 -37.57303 37.573013 -37.57303l180.58876 0c9.964996 0 19.52182 3.9585876 26.568146 11.004883c7.046295 7.0463104 11.004852 16.60315 11.004852 26.568146l0 0l15.509338 0l-21.818909 27.883667l-21.818909 -27.883667l15.509308 0l0 0c0 -13.781631 -11.172211 -24.953842 -24.953827 -24.953842l-180.58876 0l0 0c-13.781616 0 -24.953842 11.172211 -24.953842 24.953842l0 49.702576z" fill-rule="evenodd"/><path stroke="#444444" stroke-width="1.0" stroke-linejoin="round" stroke-linecap="butt" d="m152.2695 222.13124l0 -49.702576l0 0c0 -20.751007 16.822006 -37.57303 37.573013 -37.57303l180.58876 0c9.964996 0 19.52182 3.9585876 26.568146 11.004883c7.046295 7.0463104 11.004852 16.60315 11.004852 26.568146l0 0l15.509338 0l-21.818909 27.883667l-21.818909 -27.883667l15.509308 0l0 0c0 -13.781631 -11.172211 -24.953842 -24.953827 -24.953842l-180.58876 0l0 0c-13.781616 0 -24.953842 11.172211 -24.953842 24.953842l0 49.702576z" fill-rule="evenodd"/><path fill="#444444" d="m361.80493 222.13649l0 -53.21707l0 0c0 -21.923676 17.772644 -39.69632 39.69632 -39.69632l195.84421 0c10.528137 0 20.625061 4.1822815 28.06958 11.626785c7.444458 7.444504 11.62677 17.541412 11.62677 28.069534l0 0l16.51117 0l-23.228333 19.94664l-23.228394 -19.94664l16.51117 0l0 0c0 -14.504089 -11.757874 -26.261978 -26.261963 -26.261978l-195.84421 0l0 0c-14.504089 0 -26.261963 11.757889 -26.261963 26.261978l0 53.21707z" fill-rule="evenodd"/><path stroke="#2f7ee2" stroke-width="1.0" stroke-linejoin="round" stroke-linecap="butt" d="m361.80493 222.13649l0 -53.21707l0 0c0 -21.923676 17.772644 -39.69632 39.69632 -39.69632l195.84421 0c10.528137 0 20.625061 4.1822815 28.06958 11.626785c7.444458 7.444504 11.62677 17.541412 11.62677 28.069534l0 0l16.51117 0l-23.228333 19.94664l-23.228394 -19.94664l16.51117 0l0 0c0 -14.504089 -11.757874 -26.261978 -26.261963 -26.261978l-195.84421 0l0 0c-14.504089 0 -26.261963 11.757889 -26.261963 26.261978l0 53.21707z" fill-rule="evenodd"/><path fill="#000000" fill-opacity="0.0" d="m665.03235 188.70094l0 16.306778l-41.799805 0l0 -16.306778z" fill-rule="evenodd"/><path stroke="#666666" stroke-width="1.0" stroke-linejoin="round" stroke-linecap="butt" d="m665.03235 188.70094l0 16.306778l-41.799805 0l0 -16.306778z" fill-rule="evenodd"/><path fill="#000000" fill-opacity="0.0" d="m665.03235 205.00772l0 16.306778l-41.799805 0l0 -16.306778z" fill-rule="evenodd"/><path stroke="#666666" stroke-width="1.0" stroke-linejoin="round" stroke-linecap="butt" d="m665.03235 205.00772l0 16.306778l-41.799805 0l0 -16.306778z" fill-rule="evenodd"/><path fill="#000000" fill-opacity="0.0" d="m665.03235 221.3145l0 16.306793l-41.799805 0l0 -16.306793z" fill-rule="evenodd"/><path stroke="#666666" stroke-width="1.0" stroke-linejoin="round" stroke-linecap="butt" d="m665.03235 221.3145l0 16.306793l-41.799805 0l0 -16.306793z" fill-rule="evenodd"/><path fill="#000000" fill-opacity="0.0" d="m665.03235 237.62129l0 16.306778l-41.799805 0l0 -16.306778z" fill-rule="evenodd"/><path stroke="#666666" stroke-width="1.0" stroke-linejoin="round" stroke-linecap="butt" d="m665.03235 237.62129l0 16.306778l-41.799805 0l0 -16.306778z" fill-rule="evenodd"/><path fill="#000000" fill-opacity="0.0" d="m665.03235 253.92807l0 16.306763l-41.799805 0l0 -16.306763z" fill-rule="evenodd"/><path stroke="#666666" stroke-width="1.0" stroke-linejoin="round" stroke-linecap="butt" d="m665.03235 253.92807l0 16.306763l-41.799805 0l0 -16.306763z" fill-rule="evenodd"/><path fill="#000000" fill-opacity="0.0" d="m63.669563 502.87665l26.866142 0l0 20.283447l-26.866142 0z" fill-rule="evenodd"/><path fill="#3d3935" d="m66.46644 516.49133q2.234375 -1.390625 3.21875 -2.453125q1.0 -1.078125 1.0 -2.015625q0 -0.5468445 -0.3125 -0.8593445q-0.3125 -0.328125 -0.875 -0.328125q-0.625 0 -0.984375 0.46875q-0.34375 0.453125 -0.359375 1.3280945l-1.96875 -0.609375q0.03125 -1.4218445 0.984375 -2.2030945q0.953125 -0.796875 2.46875 -0.796875q1.109375 0 1.859375 0.421875q0.75 0.40625 1.109375 1.046875q0.359375 0.625 0.359375 1.359375q0 1.2499695 -0.9375 2.2968445q-0.921875 1.03125 -2.796875 2.109375l0 0.015625q0.875 -0.0625 1.765625 -0.0625l2.0625 0l0 1.75l-6.59375 0l0 -1.46875zm11.677902 -7.4687195q2.40625 0 3.0625 1.953125l-1.875 0.875q-0.28125 -1.015625 -1.328125 -1.015625q-0.75 0 -1.21875 0.703125q-0.46875 0.7030945 -0.46875 1.8905945l0 0.21875l0.03125 0q0.21875 -0.5625 0.78125 -0.859375q0.5625 -0.3125 1.34375 -0.3125q0.8125 0 1.46875 0.34375q0.65625 0.34375 1.015625 0.96875q0.375 0.609375 0.375 1.421875q0 1.34375 -0.890625 2.125q-0.890625 0.765625 -2.5 0.765625q-1.765625 0 -2.71875 -1.15625q-0.9375 -1.171875 -0.9375 -3.375q0 -1.515625 0.5 -2.5312195q0.5 -1.015625 1.359375 -1.515625q0.875 -0.5 2.0 -0.5zm-0.15625 4.9999695q-0.578125 0 -0.921875 0.3125q-0.328125 0.3125 -0.328125 0.859375q0 0.546875 0.328125 0.859375q0.34375 0.3125 0.921875 0.3125q0.59375 0 0.921875 -0.296875q0.328125 -0.3125 0.328125 -0.875q0 -0.546875 -0.328125 -0.859375q-0.328125 -0.3125 -0.921875 -0.3125z" fill-rule="nonzero"/></g></svg>